<svg xmlns="http://www.w3.org/2000/svg" xmlns:xlink="http://www.w3.org/1999/xlink" width="514" zoomAndPan="magnify" viewBox="0 0 385.5 135.750003" height="181" preserveAspectRatio="xMidYMid meet" version="1.0"><defs><g/><clipPath id="d88b1292ad"><path d="M 0.105469 10.855469 L 384.636719 10.855469 L 384.636719 135.5 L 0.105469 135.5 Z M 0.105469 10.855469 " clip-rule="nonzero"/></clipPath></defs><g clip-path="url(#d88b1292ad)"><path fill="#ff5412" d="M 68.820312 12.421875 C 75.824219 12.265625 82.835938 12.113281 89.84375 11.964844 C 99.558594 11.75 109.273438 11.445312 118.984375 11.328125 C 137.472656 11.09375 155.960938 10.855469 174.4375 10.855469 C 190.375 10.855469 206.308594 11.171875 222.246094 11.40625 C 228.777344 11.496094 235.308594 11.6875 241.835938 11.917969 C 252.5 12.289062 263.164062 12.695312 273.824219 13.144531 C 285.765625 13.644531 297.703125 14.140625 309.632812 14.746094 C 321.011719 15.328125 332.386719 15.941406 343.746094 16.742188 C 355.5 17.570312 367.238281 18.632812 378.984375 19.613281 C 381.292969 19.804688 381.523438 20.234375 382.402344 22.53125 C 383.558594 25.566406 383.648438 28.675781 383.628906 31.847656 C 383.628906 33.179688 384.085938 34.519531 384.039062 35.847656 C 383.921875 39.175781 384.515625 42.589844 383.121094 45.808594 C 383.015625 46.003906 382.988281 46.210938 383.039062 46.425781 C 383.980469 48.4375 383.449219 50.449219 383.101562 52.476562 C 382.105469 58.261719 381.078125 64.039062 380.183594 69.839844 C 379.914062 71.601562 380.148438 73.429688 379.964844 75.222656 C 379.460938 80.097656 379.007812 84.988281 378.246094 89.835938 C 377.710938 93.261719 376.785156 96.632812 375.925781 100.003906 C 375.519531 101.707031 374.949219 103.351562 374.210938 104.9375 C 373.492188 106.390625 372.363281 107.46875 370.472656 107.425781 C 367.527344 107.363281 364.578125 107.449219 361.621094 107.464844 C 356.527344 107.488281 351.433594 107.5 346.335938 107.535156 C 344.789062 107.535156 344.640625 107.75 344.421875 109.238281 C 343.894531 112.691406 343.578125 116.203125 342.691406 119.5625 C 341.875 122.636719 341.554688 125.910156 339.675781 128.683594 C 338.894531 129.839844 338.03125 130.558594 336.644531 130.683594 C 335.210938 130.816406 333.796875 131.011719 332.371094 131.164062 C 331.175781 131.28125 330.164062 131.066406 329.566406 129.855469 C 329.035156 128.777344 327.992188 128.628906 326.933594 128.554688 C 321.214844 128.160156 315.5 127.691406 309.773438 127.375 C 301.980469 126.949219 294.1875 126.535156 286.382812 126.289062 C 274.203125 125.90625 262.015625 125.453125 249.832031 125.433594 C 233.65625 125.410156 217.476562 125.671875 201.308594 126.011719 C 191.515625 126.214844 181.722656 126.726562 171.941406 127.234375 C 160.488281 127.835938 149.039062 128.535156 137.59375 129.324219 C 128.855469 129.929688 120.128906 130.75 111.398438 131.453125 C 102.503906 132.171875 93.613281 132.875 84.71875 133.566406 C 77.96875 134.097656 71.21875 134.632812 64.46875 135.128906 C 62.792969 135.25 61.117188 135.242188 59.441406 135.277344 C 56.367188 135.339844 54.234375 133.863281 53.140625 131.066406 C 51.957031 128.035156 50.789062 124.972656 49.9375 121.839844 C 48.449219 116.371094 47.96875 110.726562 47.40625 105.09375 C 47.167969 102.789062 47.105469 102.738281 44.820312 102.898438 C 39.972656 103.234375 35.132812 103.691406 30.285156 103.992188 C 25.359375 104.300781 20.421875 104.417969 15.5 104.738281 C 11.671875 104.980469 9.425781 103.085938 7.84375 99.84375 C 5.261719 94.582031 3.75 88.964844 2.464844 83.292969 C 0.945312 76.671875 0.210938 69.960938 0.261719 63.167969 C 0.28125 60.867188 0.59375 58.566406 0.847656 56.273438 C 1.21875 53.117188 3.132812 51.316406 6.070312 50.4375 C 8.207031 49.800781 10.355469 49.183594 12.457031 48.445312 C 15.128906 47.503906 15.460938 46.648438 14.386719 43.980469 C 14.296875 43.761719 14.058594 43.566406 14.0625 43.355469 C 14.078125 40.34375 12.386719 37.589844 12.769531 34.503906 C 12.851562 33.839844 12.164062 33.113281 12.050781 32.386719 C 11.59375 29.132812 11.070312 25.875 10.875 22.605469 C 10.808594 20.839844 11.054688 19.125 11.609375 17.449219 C 12.007812 16.183594 13.003906 15.277344 14.652344 15.226562 C 19.746094 15.078125 24.839844 14.828125 29.933594 14.542969 C 38.679688 14.066406 47.421875 13.484375 56.167969 13.003906 C 60.378906 12.765625 64.597656 12.65625 68.808594 12.492188 Z M 68.820312 12.421875 " fill-opacity="1" fill-rule="nonzero"/></g><g fill="#ffffff" fill-opacity="1"><g transform="translate(57.517454, 82.614086)"><g><path d="M 4.671875 -46.71875 L 26.765625 -46.71875 C 32.015625 -46.71875 36.1875 -45.660156 39.28125 -43.546875 C 42.375 -41.441406 43.921875 -38.609375 43.921875 -35.046875 C 43.921875 -32.597656 43.207031 -30.445312 41.78125 -28.59375 C 40.363281 -26.75 38.40625 -25.472656 35.90625 -24.765625 C 38.84375 -24.179688 41.179688 -22.820312 42.921875 -20.6875 C 44.660156 -18.550781 45.53125 -15.972656 45.53125 -12.953125 C 45.53125 -8.992188 43.914062 -5.84375 40.6875 -3.5 C 37.457031 -1.164062 33.082031 0 27.5625 0 L 4.671875 0 Z M 16.484375 -37.640625 L 16.484375 -28.03125 L 26.09375 -28.03125 C 27.832031 -28.03125 29.210938 -28.460938 30.234375 -29.328125 C 31.253906 -30.203125 31.765625 -31.394531 31.765625 -32.90625 C 31.765625 -34.375 31.253906 -35.53125 30.234375 -36.375 C 29.210938 -37.21875 27.832031 -37.640625 26.09375 -37.640625 Z M 16.484375 -19.484375 L 16.484375 -9.140625 L 26.09375 -9.140625 C 28.320312 -9.140625 30.066406 -9.609375 31.328125 -10.546875 C 32.597656 -11.484375 33.234375 -12.773438 33.234375 -14.421875 C 33.234375 -15.972656 32.597656 -17.203125 31.328125 -18.109375 C 30.066406 -19.023438 28.320312 -19.484375 26.09375 -19.484375 Z M 16.484375 -19.484375 "/></g></g></g><g fill="#ffffff" fill-opacity="1"><g transform="translate(101.910314, 82.614086)"><g><path d="M 46.71875 -46.71875 L 46.71875 -19.625 C 46.71875 -13.4375 44.804688 -8.53125 40.984375 -4.90625 C 37.160156 -1.28125 31.976562 0.53125 25.4375 0.53125 C 18.84375 0.53125 13.597656 -1.28125 9.703125 -4.90625 C 5.816406 -8.53125 3.875 -13.4375 3.875 -19.625 L 3.875 -46.71875 L 15.75 -46.71875 L 15.75 -19.625 C 15.75 -16.507812 16.648438 -14.023438 18.453125 -12.171875 C 20.253906 -10.328125 22.601562 -9.40625 25.5 -9.40625 C 28.34375 -9.40625 30.617188 -10.316406 32.328125 -12.140625 C 34.046875 -13.972656 34.90625 -16.46875 34.90625 -19.625 L 34.90625 -46.71875 Z M 46.71875 -46.71875 "/></g></g></g><g fill="#ffffff" fill-opacity="1"><g transform="translate(149.173697, 82.614086)"><g><path d="M 35.71875 -23.765625 L 45.984375 -23.765625 L 45.984375 -5.546875 C 43.453125 -3.765625 40.394531 -2.304688 36.8125 -1.171875 C 33.226562 -0.0351562 29.8125 0.53125 26.5625 0.53125 C 19.445312 0.53125 13.507812 -1.75 8.75 -6.3125 C 3.988281 -10.875 1.609375 -16.554688 1.609375 -23.359375 C 1.609375 -30.128906 4.050781 -35.78125 8.9375 -40.3125 C 13.832031 -44.851562 19.976562 -47.125 27.375 -47.125 C 30.84375 -47.125 34.289062 -46.5 37.71875 -45.25 C 41.144531 -44.007812 44.054688 -42.320312 46.453125 -40.1875 L 39.78125 -32.109375 C 38.09375 -33.660156 36.132812 -34.894531 33.90625 -35.8125 C 31.6875 -36.726562 29.484375 -37.1875 27.296875 -37.1875 C 23.472656 -37.1875 20.257812 -35.859375 17.65625 -33.203125 C 15.050781 -30.554688 13.75 -27.273438 13.75 -23.359375 C 13.75 -19.398438 15.0625 -16.082031 17.6875 -13.40625 C 20.3125 -10.738281 23.5625 -9.40625 27.4375 -9.40625 C 29.925781 -9.40625 32.6875 -10.164062 35.71875 -11.6875 Z M 35.71875 -23.765625 "/></g></g></g><g fill="#ffffff" fill-opacity="1"><g transform="translate(195.435737, 82.614086)"><g><path d="M 4.671875 -46.71875 L 26.765625 -46.71875 C 32.015625 -46.71875 36.1875 -45.660156 39.28125 -43.546875 C 42.375 -41.441406 43.921875 -38.609375 43.921875 -35.046875 C 43.921875 -32.597656 43.207031 -30.445312 41.78125 -28.59375 C 40.363281 -26.75 38.40625 -25.472656 35.90625 -24.765625 C 38.84375 -24.179688 41.179688 -22.820312 42.921875 -20.6875 C 44.660156 -18.550781 45.53125 -15.972656 45.53125 -12.953125 C 45.53125 -8.992188 43.914062 -5.84375 40.6875 -3.5 C 37.457031 -1.164062 33.082031 0 27.5625 0 L 4.671875 0 Z M 16.484375 -37.640625 L 16.484375 -28.03125 L 26.09375 -28.03125 C 27.832031 -28.03125 29.210938 -28.460938 30.234375 -29.328125 C 31.253906 -30.203125 31.765625 -31.394531 31.765625 -32.90625 C 31.765625 -34.375 31.253906 -35.53125 30.234375 -36.375 C 29.210938 -37.21875 27.832031 -37.640625 26.09375 -37.640625 Z M 16.484375 -19.484375 L 16.484375 -9.140625 L 26.09375 -9.140625 C 28.320312 -9.140625 30.066406 -9.609375 31.328125 -10.546875 C 32.597656 -11.484375 33.234375 -12.773438 33.234375 -14.421875 C 33.234375 -15.972656 32.597656 -17.203125 31.328125 -18.109375 C 30.066406 -19.023438 28.320312 -19.484375 26.09375 -19.484375 Z M 16.484375 -19.484375 "/></g></g></g><g fill="#ffffff" fill-opacity="1"><g transform="translate(239.828601, 82.614086)"><g><path d="M 26.828125 -47.125 C 34.085938 -47.125 40.117188 -44.863281 44.921875 -40.34375 C 49.722656 -35.832031 52.125 -30.191406 52.125 -23.421875 C 52.125 -16.617188 49.707031 -10.925781 44.875 -6.34375 C 40.050781 -1.757812 34.035156 0.53125 26.828125 0.53125 C 19.617188 0.53125 13.613281 -1.75 8.8125 -6.3125 C 4.007812 -10.875 1.609375 -16.578125 1.609375 -23.421875 C 1.609375 -30.234375 4.007812 -35.882812 8.8125 -40.375 C 13.613281 -44.875 19.617188 -47.125 26.828125 -47.125 Z M 26.96875 -37.1875 C 23.320312 -37.1875 20.207031 -35.859375 17.625 -33.203125 C 15.039062 -30.554688 13.75 -27.273438 13.75 -23.359375 C 13.75 -19.441406 15.050781 -16.132812 17.65625 -13.4375 C 20.257812 -10.75 23.363281 -9.40625 26.96875 -9.40625 C 30.570312 -9.40625 33.628906 -10.75 36.140625 -13.4375 C 38.660156 -16.132812 39.921875 -19.441406 39.921875 -23.359375 C 39.921875 -27.273438 38.660156 -30.554688 36.140625 -33.203125 C 33.628906 -35.859375 30.570312 -37.1875 26.96875 -37.1875 Z M 26.96875 -37.1875 "/></g></g></g><g fill="#ffffff" fill-opacity="1"><g transform="translate(290.229525, 82.614086)"><g><path d="M 31.765625 -24.4375 L 48.53125 0 L 34.3125 0 L 24.234375 -14.890625 L 14.15625 0 L 0.328125 0 L 17.015625 -23.890625 L 1.40625 -46.71875 L 15.21875 -46.71875 L 24.234375 -33.109375 L 33.234375 -46.71875 L 47.1875 -46.71875 Z M 31.765625 -24.4375 "/></g></g></g><g fill="#ffffff" fill-opacity="1"><g transform="translate(60.299675, 112.075245)"><g><path d="M 10.734375 0 L 8.171875 -4.25 C 8.035156 -4.238281 7.820312 -4.234375 7.53125 -4.234375 L 4.203125 -4.234375 L 4.203125 0 L 1.84375 0 L 1.84375 -14.015625 L 7.53125 -14.015625 C 9.320312 -14.015625 10.710938 -13.597656 11.703125 -12.765625 C 12.691406 -11.929688 13.1875 -10.753906 13.1875 -9.234375 C 13.1875 -8.109375 12.929688 -7.160156 12.421875 -6.390625 C 11.921875 -5.617188 11.207031 -5.050781 10.28125 -4.6875 L 13.421875 0 Z M 4.203125 -6.34375 L 7.53125 -6.34375 C 9.800781 -6.34375 10.9375 -7.285156 10.9375 -9.171875 C 10.9375 -10.992188 9.800781 -11.90625 7.53125 -11.90625 L 4.203125 -11.90625 Z M 4.203125 -6.34375 "/></g></g></g><g fill="#ffffff" fill-opacity="1"><g transform="translate(75.220283, 112.075245)"><g><path d="M 6.265625 -10.734375 C 7.910156 -10.734375 9.242188 -10.234375 10.265625 -9.234375 C 11.296875 -8.242188 11.8125 -6.941406 11.8125 -5.328125 C 11.8125 -3.722656 11.296875 -2.421875 10.265625 -1.421875 C 9.242188 -0.421875 7.910156 0.078125 6.265625 0.078125 C 4.609375 0.078125 3.265625 -0.421875 2.234375 -1.421875 C 1.210938 -2.421875 0.703125 -3.722656 0.703125 -5.328125 C 0.703125 -6.941406 1.210938 -8.242188 2.234375 -9.234375 C 3.265625 -10.234375 4.609375 -10.734375 6.265625 -10.734375 Z M 6.265625 -8.75 C 5.304688 -8.75 4.519531 -8.425781 3.90625 -7.78125 C 3.300781 -7.144531 3 -6.320312 3 -5.3125 C 3 -4.28125 3.300781 -3.441406 3.90625 -2.796875 C 4.519531 -2.160156 5.304688 -1.84375 6.265625 -1.84375 C 7.234375 -1.84375 8.015625 -2.160156 8.609375 -2.796875 C 9.210938 -3.441406 9.515625 -4.28125 9.515625 -5.3125 C 9.515625 -6.320312 9.207031 -7.144531 8.59375 -7.78125 C 7.988281 -8.425781 7.210938 -8.75 6.265625 -8.75 Z M 6.265625 -8.75 "/></g></g></g><g fill="#ffffff" fill-opacity="1"><g transform="translate(88.178179, 112.075245)"><g><path d="M 7.828125 -10.734375 C 9.335938 -10.734375 10.5625 -10.226562 11.5 -9.21875 C 12.445312 -8.21875 12.921875 -6.90625 12.921875 -5.28125 C 12.921875 -3.6875 12.457031 -2.394531 11.53125 -1.40625 C 10.613281 -0.414062 9.394531 0.078125 7.875 0.078125 C 6.164062 0.078125 4.910156 -0.5625 4.109375 -1.84375 L 4.109375 0 L 1.796875 0 L 1.796875 -14.859375 L 4.109375 -14.859375 L 4.109375 -8.8125 C 4.910156 -10.09375 6.148438 -10.734375 7.828125 -10.734375 Z M 5.015625 -2.859375 C 5.617188 -2.210938 6.394531 -1.890625 7.34375 -1.890625 C 8.300781 -1.890625 9.082031 -2.210938 9.6875 -2.859375 C 10.289062 -3.503906 10.59375 -4.34375 10.59375 -5.375 C 10.59375 -6.375 10.289062 -7.195312 9.6875 -7.84375 C 9.082031 -8.488281 8.300781 -8.8125 7.34375 -8.8125 C 6.394531 -8.8125 5.617188 -8.488281 5.015625 -7.84375 C 4.410156 -7.195312 4.109375 -6.375 4.109375 -5.375 C 4.109375 -4.34375 4.410156 -3.503906 5.015625 -2.859375 Z M 5.015625 -2.859375 "/></g></g></g><g fill="#ffffff" fill-opacity="1"><g transform="translate(102.237605, 112.075245)"><g><path d="M 6.265625 -10.734375 C 7.910156 -10.734375 9.242188 -10.234375 10.265625 -9.234375 C 11.296875 -8.242188 11.8125 -6.941406 11.8125 -5.328125 C 11.8125 -3.722656 11.296875 -2.421875 10.265625 -1.421875 C 9.242188 -0.421875 7.910156 0.078125 6.265625 0.078125 C 4.609375 0.078125 3.265625 -0.421875 2.234375 -1.421875 C 1.210938 -2.421875 0.703125 -3.722656 0.703125 -5.328125 C 0.703125 -6.941406 1.210938 -8.242188 2.234375 -9.234375 C 3.265625 -10.234375 4.609375 -10.734375 6.265625 -10.734375 Z M 6.265625 -8.75 C 5.304688 -8.75 4.519531 -8.425781 3.90625 -7.78125 C 3.300781 -7.144531 3 -6.320312 3 -5.3125 C 3 -4.28125 3.300781 -3.441406 3.90625 -2.796875 C 4.519531 -2.160156 5.304688 -1.84375 6.265625 -1.84375 C 7.234375 -1.84375 8.015625 -2.160156 8.609375 -2.796875 C 9.210938 -3.441406 9.515625 -4.28125 9.515625 -5.3125 C 9.515625 -6.320312 9.207031 -7.144531 8.59375 -7.78125 C 7.988281 -8.425781 7.210938 -8.75 6.265625 -8.75 Z M 6.265625 -8.75 "/></g></g></g><g fill="#ffffff" fill-opacity="1"><g transform="translate(115.1955, 112.075245)"><g><path d="M 7.15625 -2.4375 L 7.734375 -0.6875 C 6.847656 -0.164062 5.972656 0.09375 5.109375 0.09375 C 4.242188 0.09375 3.53125 -0.164062 2.96875 -0.6875 C 2.40625 -1.207031 2.125 -1.976562 2.125 -3 L 2.125 -8.53125 L 0.625 -8.53125 L 0.625 -10.25 L 2.125 -10.25 L 2.125 -13.1875 L 4.40625 -13.1875 L 4.40625 -10.25 L 7.546875 -10.25 L 7.546875 -8.53125 L 4.40625 -8.53125 L 4.40625 -3.421875 C 4.40625 -2.890625 4.5 -2.515625 4.6875 -2.296875 C 4.875 -2.085938 5.160156 -1.984375 5.546875 -1.984375 C 5.972656 -1.984375 6.507812 -2.132812 7.15625 -2.4375 Z M 7.15625 -2.4375 "/></g></g></g><g fill="#ffffff" fill-opacity="1"><g transform="translate(123.787368, 112.075245)"><g><path d="M 1.875 -14.71875 C 2.132812 -14.976562 2.457031 -15.109375 2.84375 -15.109375 C 3.226562 -15.109375 3.546875 -14.976562 3.796875 -14.71875 C 4.054688 -14.457031 4.1875 -14.117188 4.1875 -13.703125 C 4.1875 -13.296875 4.054688 -12.960938 3.796875 -12.703125 C 3.546875 -12.441406 3.226562 -12.3125 2.84375 -12.3125 C 2.457031 -12.3125 2.132812 -12.441406 1.875 -12.703125 C 1.625 -12.960938 1.5 -13.296875 1.5 -13.703125 C 1.5 -14.117188 1.625 -14.457031 1.875 -14.71875 Z M 3.984375 0 L 1.703125 0 L 1.703125 -10.65625 L 3.984375 -10.65625 Z M 3.984375 0 "/></g></g></g><g fill="#ffffff" fill-opacity="1"><g transform="translate(129.915837, 112.075245)"><g><path d="M 6.0625 -10.734375 C 7.988281 -10.734375 9.457031 -10.15625 10.46875 -9 L 9.21875 -7.515625 C 8.414062 -8.328125 7.398438 -8.726562 6.171875 -8.71875 C 5.242188 -8.71875 4.484375 -8.398438 3.890625 -7.765625 C 3.296875 -7.128906 3 -6.3125 3 -5.3125 C 3 -4.3125 3.296875 -3.492188 3.890625 -2.859375 C 4.484375 -2.222656 5.242188 -1.90625 6.171875 -1.90625 C 7.535156 -1.90625 8.582031 -2.332031 9.3125 -3.1875 L 10.59375 -1.90625 C 9.59375 -0.582031 8.082031 0.078125 6.0625 0.078125 C 4.476562 0.078125 3.1875 -0.414062 2.1875 -1.40625 C 1.195312 -2.40625 0.703125 -3.707031 0.703125 -5.3125 C 0.703125 -6.925781 1.195312 -8.234375 2.1875 -9.234375 C 3.1875 -10.234375 4.476562 -10.734375 6.0625 -10.734375 Z M 6.0625 -10.734375 "/></g></g></g><g fill="#ffffff" fill-opacity="1"><g transform="translate(141.65205, 112.075245)"><g><path d="M 4.890625 -10.75 C 6.359375 -10.75 7.597656 -10.390625 8.609375 -9.671875 L 7.765625 -7.96875 C 6.753906 -8.59375 5.734375 -8.90625 4.703125 -8.90625 C 3.660156 -8.90625 3.140625 -8.554688 3.140625 -7.859375 C 3.140625 -7.503906 3.332031 -7.210938 3.71875 -6.984375 C 4.113281 -6.765625 4.585938 -6.578125 5.140625 -6.421875 C 5.691406 -6.265625 6.242188 -6.082031 6.796875 -5.875 C 7.347656 -5.664062 7.816406 -5.328125 8.203125 -4.859375 C 8.597656 -4.398438 8.796875 -3.804688 8.796875 -3.078125 C 8.796875 -2.054688 8.40625 -1.273438 7.625 -0.734375 C 6.84375 -0.191406 5.867188 0.078125 4.703125 0.078125 C 3.898438 0.078125 3.113281 -0.0507812 2.34375 -0.3125 C 1.582031 -0.570312 0.941406 -0.9375 0.421875 -1.40625 L 1.234375 -3.046875 C 1.691406 -2.640625 2.25 -2.316406 2.90625 -2.078125 C 3.570312 -1.835938 4.207031 -1.71875 4.8125 -1.71875 C 5.332031 -1.71875 5.75 -1.8125 6.0625 -2 C 6.382812 -2.1875 6.546875 -2.472656 6.546875 -2.859375 C 6.546875 -3.265625 6.351562 -3.585938 5.96875 -3.828125 C 5.582031 -4.066406 5.113281 -4.257812 4.5625 -4.40625 C 4.019531 -4.550781 3.472656 -4.722656 2.921875 -4.921875 C 2.378906 -5.128906 1.914062 -5.460938 1.53125 -5.921875 C 1.15625 -6.378906 0.96875 -6.960938 0.96875 -7.671875 C 0.96875 -8.679688 1.34375 -9.445312 2.09375 -9.96875 C 2.84375 -10.488281 3.773438 -10.75 4.890625 -10.75 Z M 4.890625 -10.75 "/></g></g></g><g fill="#ffffff" fill-opacity="1"><g transform="translate(151.505664, 112.075245)"><g/></g></g><g fill="#ffffff" fill-opacity="1"><g transform="translate(157.113413, 112.075245)"><g><path d="M 5.875 -12.953125 C 5.457031 -12.953125 5.109375 -12.832031 4.828125 -12.59375 C 4.554688 -12.351562 4.421875 -11.992188 4.421875 -11.515625 L 4.421875 -10.25 L 7.21875 -10.25 L 7.21875 -8.53125 L 4.421875 -8.53125 L 4.421875 0 L 2.140625 0 L 2.140625 -8.53125 L 0.734375 -8.53125 L 0.734375 -10.25 L 2.140625 -10.25 L 2.140625 -11.296875 C 2.140625 -12.472656 2.5 -13.378906 3.21875 -14.015625 C 3.945312 -14.648438 4.8125 -14.96875 5.8125 -14.96875 C 6.75 -14.96875 7.550781 -14.71875 8.21875 -14.21875 L 7.328125 -12.453125 C 6.878906 -12.785156 6.394531 -12.953125 5.875 -12.953125 Z M 5.875 -12.953125 "/></g></g></g><g fill="#ffffff" fill-opacity="1"><g transform="translate(164.423511, 112.075245)"><g><path d="M 6.265625 -10.734375 C 7.910156 -10.734375 9.242188 -10.234375 10.265625 -9.234375 C 11.296875 -8.242188 11.8125 -6.941406 11.8125 -5.328125 C 11.8125 -3.722656 11.296875 -2.421875 10.265625 -1.421875 C 9.242188 -0.421875 7.910156 0.078125 6.265625 0.078125 C 4.609375 0.078125 3.265625 -0.421875 2.234375 -1.421875 C 1.210938 -2.421875 0.703125 -3.722656 0.703125 -5.328125 C 0.703125 -6.941406 1.210938 -8.242188 2.234375 -9.234375 C 3.265625 -10.234375 4.609375 -10.734375 6.265625 -10.734375 Z M 6.265625 -8.75 C 5.304688 -8.75 4.519531 -8.425781 3.90625 -7.78125 C 3.300781 -7.144531 3 -6.320312 3 -5.3125 C 3 -4.28125 3.300781 -3.441406 3.90625 -2.796875 C 4.519531 -2.160156 5.304688 -1.84375 6.265625 -1.84375 C 7.234375 -1.84375 8.015625 -2.160156 8.609375 -2.796875 C 9.210938 -3.441406 9.515625 -4.28125 9.515625 -5.3125 C 9.515625 -6.320312 9.207031 -7.144531 8.59375 -7.78125 C 7.988281 -8.425781 7.210938 -8.75 6.265625 -8.75 Z M 6.265625 -8.75 "/></g></g></g><g fill="#ffffff" fill-opacity="1"><g transform="translate(177.381406, 112.075245)"><g><path d="M 4 -10.65625 L 4 -8.53125 C 4.738281 -10 5.96875 -10.734375 7.6875 -10.734375 L 7.6875 -8.53125 C 6.632812 -8.582031 5.78125 -8.332031 5.125 -7.78125 C 4.46875 -7.238281 4.09375 -6.5 4 -5.5625 L 4 0 L 1.703125 0 L 1.703125 -10.65625 Z M 4 -10.65625 "/></g></g></g><g fill="#ffffff" fill-opacity="1"><g transform="translate(185.712913, 112.075245)"><g/></g></g><g fill="#ffffff" fill-opacity="1"><g transform="translate(191.320669, 112.075245)"><g><path d="M 8.046875 -14.078125 C 9.035156 -14.078125 10 -13.882812 10.9375 -13.5 C 11.882812 -13.125 12.695312 -12.597656 13.375 -11.921875 L 12 -10.203125 C 11.488281 -10.742188 10.882812 -11.175781 10.1875 -11.5 C 9.5 -11.820312 8.800781 -11.984375 8.09375 -11.984375 C 6.6875 -11.984375 5.5 -11.503906 4.53125 -10.546875 C 3.5625 -9.585938 3.078125 -8.421875 3.078125 -7.046875 C 3.078125 -5.660156 3.5625 -4.488281 4.53125 -3.53125 C 5.5 -2.582031 6.6875 -2.109375 8.09375 -2.109375 C 9.550781 -2.109375 10.851562 -2.660156 12 -3.765625 L 13.40625 -2.203125 C 12.675781 -1.492188 11.832031 -0.929688 10.875 -0.515625 C 9.914062 -0.109375 8.945312 0.09375 7.96875 0.09375 C 5.914062 0.09375 4.1875 -0.585938 2.78125 -1.953125 C 1.382812 -3.316406 0.6875 -5.007812 0.6875 -7.03125 C 0.6875 -9.019531 1.394531 -10.691406 2.8125 -12.046875 C 4.238281 -13.398438 5.984375 -14.078125 8.046875 -14.078125 Z M 8.046875 -14.078125 "/></g></g></g><g fill="#ffffff" fill-opacity="1"><g transform="translate(205.720559, 112.075245)"><g><path d="M 11.375 -10.65625 L 11.375 0 L 9.078125 0 L 9.078125 -2.078125 C 8.378906 -0.660156 7.109375 0.0546875 5.265625 0.078125 C 4.054688 0.078125 3.101562 -0.285156 2.40625 -1.015625 C 1.707031 -1.753906 1.359375 -2.757812 1.359375 -4.03125 L 1.359375 -10.65625 L 3.671875 -10.65625 L 3.671875 -4.671875 C 3.671875 -3.867188 3.890625 -3.234375 4.328125 -2.765625 C 4.765625 -2.304688 5.375 -2.078125 6.15625 -2.078125 C 7.039062 -2.097656 7.75 -2.414062 8.28125 -3.03125 C 8.8125 -3.65625 9.078125 -4.445312 9.078125 -5.40625 L 9.078125 -10.65625 Z M 11.375 -10.65625 "/></g></g></g><g fill="#ffffff" fill-opacity="1"><g transform="translate(219.239243, 112.075245)"><g><path d="M 4 -10.65625 L 4 -8.53125 C 4.738281 -10 5.96875 -10.734375 7.6875 -10.734375 L 7.6875 -8.53125 C 6.632812 -8.582031 5.78125 -8.332031 5.125 -7.78125 C 4.46875 -7.238281 4.09375 -6.5 4 -5.5625 L 4 0 L 1.703125 0 L 1.703125 -10.65625 Z M 4 -10.65625 "/></g></g></g><g fill="#ffffff" fill-opacity="1"><g transform="translate(227.570749, 112.075245)"><g><path d="M 1.875 -14.71875 C 2.132812 -14.976562 2.457031 -15.109375 2.84375 -15.109375 C 3.226562 -15.109375 3.546875 -14.976562 3.796875 -14.71875 C 4.054688 -14.457031 4.1875 -14.117188 4.1875 -13.703125 C 4.1875 -13.296875 4.054688 -12.960938 3.796875 -12.703125 C 3.546875 -12.441406 3.226562 -12.3125 2.84375 -12.3125 C 2.457031 -12.3125 2.132812 -12.441406 1.875 -12.703125 C 1.625 -12.960938 1.5 -13.296875 1.5 -13.703125 C 1.5 -14.117188 1.625 -14.457031 1.875 -14.71875 Z M 3.984375 0 L 1.703125 0 L 1.703125 -10.65625 L 3.984375 -10.65625 Z M 3.984375 0 "/></g></g></g><g fill="#ffffff" fill-opacity="1"><g transform="translate(233.699214, 112.075245)"><g><path d="M 6.265625 -10.734375 C 7.910156 -10.734375 9.242188 -10.234375 10.265625 -9.234375 C 11.296875 -8.242188 11.8125 -6.941406 11.8125 -5.328125 C 11.8125 -3.722656 11.296875 -2.421875 10.265625 -1.421875 C 9.242188 -0.421875 7.910156 0.078125 6.265625 0.078125 C 4.609375 0.078125 3.265625 -0.421875 2.234375 -1.421875 C 1.210938 -2.421875 0.703125 -3.722656 0.703125 -5.328125 C 0.703125 -6.941406 1.210938 -8.242188 2.234375 -9.234375 C 3.265625 -10.234375 4.609375 -10.734375 6.265625 -10.734375 Z M 6.265625 -8.75 C 5.304688 -8.75 4.519531 -8.425781 3.90625 -7.78125 C 3.300781 -7.144531 3 -6.320312 3 -5.3125 C 3 -4.28125 3.300781 -3.441406 3.90625 -2.796875 C 4.519531 -2.160156 5.304688 -1.84375 6.265625 -1.84375 C 7.234375 -1.84375 8.015625 -2.160156 8.609375 -2.796875 C 9.210938 -3.441406 9.515625 -4.28125 9.515625 -5.3125 C 9.515625 -6.320312 9.207031 -7.144531 8.59375 -7.78125 C 7.988281 -8.425781 7.210938 -8.75 6.265625 -8.75 Z M 6.265625 -8.75 "/></g></g></g><g fill="#ffffff" fill-opacity="1"><g transform="translate(246.657109, 112.075245)"><g><path d="M 11.375 -10.65625 L 11.375 0 L 9.078125 0 L 9.078125 -2.078125 C 8.378906 -0.660156 7.109375 0.0546875 5.265625 0.078125 C 4.054688 0.078125 3.101562 -0.285156 2.40625 -1.015625 C 1.707031 -1.753906 1.359375 -2.757812 1.359375 -4.03125 L 1.359375 -10.65625 L 3.671875 -10.65625 L 3.671875 -4.671875 C 3.671875 -3.867188 3.890625 -3.234375 4.328125 -2.765625 C 4.765625 -2.304688 5.375 -2.078125 6.15625 -2.078125 C 7.039062 -2.097656 7.75 -2.414062 8.28125 -3.03125 C 8.8125 -3.65625 9.078125 -4.445312 9.078125 -5.40625 L 9.078125 -10.65625 Z M 11.375 -10.65625 "/></g></g></g><g fill="#ffffff" fill-opacity="1"><g transform="translate(260.175792, 112.075245)"><g><path d="M 4.890625 -10.75 C 6.359375 -10.75 7.597656 -10.390625 8.609375 -9.671875 L 7.765625 -7.96875 C 6.753906 -8.59375 5.734375 -8.90625 4.703125 -8.90625 C 3.660156 -8.90625 3.140625 -8.554688 3.140625 -7.859375 C 3.140625 -7.503906 3.332031 -7.210938 3.71875 -6.984375 C 4.113281 -6.765625 4.585938 -6.578125 5.140625 -6.421875 C 5.691406 -6.265625 6.242188 -6.082031 6.796875 -5.875 C 7.347656 -5.664062 7.816406 -5.328125 8.203125 -4.859375 C 8.597656 -4.398438 8.796875 -3.804688 8.796875 -3.078125 C 8.796875 -2.054688 8.40625 -1.273438 7.625 -0.734375 C 6.84375 -0.191406 5.867188 0.078125 4.703125 0.078125 C 3.898438 0.078125 3.113281 -0.0507812 2.34375 -0.3125 C 1.582031 -0.570312 0.941406 -0.9375 0.421875 -1.40625 L 1.234375 -3.046875 C 1.691406 -2.640625 2.25 -2.316406 2.90625 -2.078125 C 3.570312 -1.835938 4.207031 -1.71875 4.8125 -1.71875 C 5.332031 -1.71875 5.75 -1.8125 6.0625 -2 C 6.382812 -2.1875 6.546875 -2.472656 6.546875 -2.859375 C 6.546875 -3.265625 6.351562 -3.585938 5.96875 -3.828125 C 5.582031 -4.066406 5.113281 -4.257812 4.5625 -4.40625 C 4.019531 -4.550781 3.472656 -4.722656 2.921875 -4.921875 C 2.378906 -5.128906 1.914062 -5.460938 1.53125 -5.921875 C 1.15625 -6.378906 0.96875 -6.960938 0.96875 -7.671875 C 0.96875 -8.679688 1.34375 -9.445312 2.09375 -9.96875 C 2.84375 -10.488281 3.773438 -10.75 4.890625 -10.75 Z M 4.890625 -10.75 "/></g></g></g><g fill="#ffffff" fill-opacity="1"><g transform="translate(270.029407, 112.075245)"><g/></g></g><g fill="#ffffff" fill-opacity="1"><g transform="translate(275.637163, 112.075245)"><g><path d="M 16.671875 0 L 14.484375 0 L 14.46875 -10.46875 L 10.03125 -1.46875 L 8.5 -1.46875 L 4.0625 -10.46875 L 4.0625 0 L 1.84375 0 L 1.84375 -14.015625 L 4.640625 -14.015625 L 9.28125 -4.703125 L 13.875 -14.015625 L 16.671875 -14.015625 Z M 16.671875 0 "/></g></g></g><g fill="#ffffff" fill-opacity="1"><g transform="translate(294.603361, 112.075245)"><g><path d="M 1.875 -14.71875 C 2.132812 -14.976562 2.457031 -15.109375 2.84375 -15.109375 C 3.226562 -15.109375 3.546875 -14.976562 3.796875 -14.71875 C 4.054688 -14.457031 4.1875 -14.117188 4.1875 -13.703125 C 4.1875 -13.296875 4.054688 -12.960938 3.796875 -12.703125 C 3.546875 -12.441406 3.226562 -12.3125 2.84375 -12.3125 C 2.457031 -12.3125 2.132812 -12.441406 1.875 -12.703125 C 1.625 -12.960938 1.5 -13.296875 1.5 -13.703125 C 1.5 -14.117188 1.625 -14.457031 1.875 -14.71875 Z M 3.984375 0 L 1.703125 0 L 1.703125 -10.65625 L 3.984375 -10.65625 Z M 3.984375 0 "/></g></g></g><g fill="#ffffff" fill-opacity="1"><g transform="translate(300.731826, 112.075245)"><g><path d="M 7.9375 -10.734375 C 9.175781 -10.734375 10.144531 -10.367188 10.84375 -9.640625 C 11.550781 -8.910156 11.90625 -7.90625 11.90625 -6.625 L 11.90625 0 L 9.59375 0 L 9.59375 -5.984375 C 9.59375 -6.785156 9.363281 -7.414062 8.90625 -7.875 C 8.457031 -8.34375 7.832031 -8.578125 7.03125 -8.578125 C 6.175781 -8.554688 5.476562 -8.28125 4.9375 -7.75 C 4.394531 -7.21875 4.082031 -6.523438 4 -5.671875 L 4 0 L 1.703125 0 L 1.703125 -10.65625 L 4 -10.65625 L 4 -8.609375 C 4.726562 -10.023438 6.039062 -10.734375 7.9375 -10.734375 Z M 7.9375 -10.734375 "/></g></g></g><g fill="#ffffff" fill-opacity="1"><g transform="translate(314.450783, 112.075245)"><g><path d="M 11.859375 -14.859375 L 11.859375 0 L 9.5625 0 L 9.5625 -1.828125 C 8.769531 -0.546875 7.519531 0.09375 5.8125 0.09375 C 4.289062 0.09375 3.054688 -0.40625 2.109375 -1.40625 C 1.171875 -2.414062 0.703125 -3.738281 0.703125 -5.375 C 0.703125 -6.96875 1.164062 -8.257812 2.09375 -9.25 C 3.03125 -10.25 4.253906 -10.75 5.765625 -10.75 C 7.472656 -10.75 8.738281 -10.101562 9.5625 -8.8125 L 9.5625 -14.859375 Z M 3.9375 -2.796875 C 4.539062 -2.148438 5.320312 -1.828125 6.28125 -1.828125 C 7.25 -1.828125 8.035156 -2.148438 8.640625 -2.796875 C 9.253906 -3.441406 9.5625 -4.269531 9.5625 -5.28125 C 9.5625 -6.3125 9.253906 -7.15625 8.640625 -7.8125 C 8.035156 -8.46875 7.25 -8.796875 6.28125 -8.796875 C 5.320312 -8.796875 4.539062 -8.46875 3.9375 -7.8125 C 3.332031 -7.15625 3.019531 -6.3125 3 -5.28125 C 3.019531 -4.269531 3.332031 -3.441406 3.9375 -2.796875 Z M 3.9375 -2.796875 "/></g></g></g><g fill="#ffffff" fill-opacity="1"><g transform="translate(328.550256, 112.075245)"><g><path d="M 4.890625 -10.75 C 6.359375 -10.75 7.597656 -10.390625 8.609375 -9.671875 L 7.765625 -7.96875 C 6.753906 -8.59375 5.734375 -8.90625 4.703125 -8.90625 C 3.660156 -8.90625 3.140625 -8.554688 3.140625 -7.859375 C 3.140625 -7.503906 3.332031 -7.210938 3.71875 -6.984375 C 4.113281 -6.765625 4.585938 -6.578125 5.140625 -6.421875 C 5.691406 -6.265625 6.242188 -6.082031 6.796875 -5.875 C 7.347656 -5.664062 7.816406 -5.328125 8.203125 -4.859375 C 8.597656 -4.398438 8.796875 -3.804688 8.796875 -3.078125 C 8.796875 -2.054688 8.40625 -1.273438 7.625 -0.734375 C 6.84375 -0.191406 5.867188 0.078125 4.703125 0.078125 C 3.898438 0.078125 3.113281 -0.0507812 2.34375 -0.3125 C 1.582031 -0.570312 0.941406 -0.9375 0.421875 -1.40625 L 1.234375 -3.046875 C 1.691406 -2.640625 2.25 -2.316406 2.90625 -2.078125 C 3.570312 -1.835938 4.207031 -1.71875 4.8125 -1.71875 C 5.332031 -1.71875 5.75 -1.8125 6.0625 -2 C 6.382812 -2.1875 6.546875 -2.472656 6.546875 -2.859375 C 6.546875 -3.265625 6.351562 -3.585938 5.96875 -3.828125 C 5.582031 -4.066406 5.113281 -4.257812 4.5625 -4.40625 C 4.019531 -4.550781 3.472656 -4.722656 2.921875 -4.921875 C 2.378906 -5.128906 1.914062 -5.460938 1.53125 -5.921875 C 1.15625 -6.378906 0.96875 -6.960938 0.96875 -7.671875 C 0.96875 -8.679688 1.34375 -9.445312 2.09375 -9.96875 C 2.84375 -10.488281 3.773438 -10.75 4.890625 -10.75 Z M 4.890625 -10.75 "/></g></g></g></svg>